<svg width="70" height="24" viewBox="0 0 70 24" fill="none" xmlns="http://www.w3.org/2000/svg">
<g clip-path="url(#clip0_1_30)">
<path d="M9.37122 7.15422H11.5909L14.6719 14.3173L17.7528 7.15422H19.9459V16.7712H17.9925V10.5217L15.3822 16.7712H13.9216L11.3112 10.504V16.7712H9.37122V7.15422Z" fill="#022703"/>
<path d="M36.8333 16.7712H32.6514V7.15422H36.6469C38.6712 7.15422 39.7988 8.20463 39.7988 9.639C39.8155 10.1384 39.6612 10.6286 39.3612 11.0294C39.0612 11.4303 38.6333 11.7181 38.1474 11.8457C38.6848 11.956 39.1665 12.2498 39.5087 12.6763C39.8509 13.1028 40.0321 13.635 40.0208 14.1805C40.0252 15.7119 38.8444 16.7712 36.8333 16.7712ZM36.3894 8.69894H34.6136V11.1131H36.3894C37.3083 11.1131 37.8366 10.6982 37.8366 9.91264C37.8366 9.12704 37.2906 8.71659 36.3716 8.71659L36.3894 8.69894ZM36.5314 12.6049H34.5959V15.1956H36.5536C37.4992 15.1956 38.0541 14.7542 38.0541 13.9289C38.0541 13.1036 37.4548 12.6049 36.5137 12.6049H36.5314Z" fill="#022703"/>
<path d="M41.3038 7.15422H43.2482V16.7712H41.3038V7.15422Z" fill="#022703"/>
<path d="M46.8264 7.15422V15.2573H50.9816V16.7712H44.8864V7.15422H46.8264Z" fill="#022703"/>
<path d="M51.9406 7.15422H53.8806V16.7712H51.9406V7.15422Z" fill="#022703"/>
<path d="M67.8336 7.15422L65.7648 11.5589L63.6828 7.15422H55.0082V8.71659H57.5875V16.7888H59.5319V8.71659H62.3065L64.7793 13.4346V16.7888H66.7237V13.4346L70 7.15422H67.8336Z" fill="#022703"/>
<path d="M27.2753 7.06154C27.0122 7.02272 26.7466 7.00355 26.4806 7.00417C26.2261 7.00409 25.9721 7.02625 25.7215 7.07037L21.5973 0H7.69312L0.732147 11.9826L7.69312 23.9695H21.5973L25.7659 16.8153C25.5077 16.7772 25.2526 16.7212 25.0023 16.6476L21.18 23.2281H8.12374L1.59339 11.9826L8.12374 0.741462H21.18L24.9579 7.24691L25.8458 8.80045C26.0548 8.75886 26.2675 8.73816 26.4806 8.73866H26.676H26.8047C26.9121 8.74839 27.0189 8.7646 27.1243 8.78721C27.6836 8.89837 28.2031 9.15548 28.6294 9.53216C29.0557 9.90883 29.3735 10.3915 29.5502 10.9306C29.7269 11.4697 29.7561 12.0459 29.6348 12.5999C29.5136 13.154 29.2462 13.666 28.8601 14.0834C28.7618 14.1929 28.6565 14.2961 28.5449 14.3923C28.0311 14.819 27.3967 15.0766 26.7292 15.1294H26.4806C26.2854 15.128 26.0907 15.1088 25.8991 15.072L25.0112 16.6388C25.2586 16.7119 25.5107 16.7679 25.7659 16.8065C27.0383 16.9471 28.3161 16.5936 29.3324 15.8196C30.3488 15.0457 31.025 13.9113 31.2198 12.6534C31.4147 11.3955 31.1131 10.1114 30.378 9.06934C29.6429 8.0273 28.5313 7.30794 27.2753 7.06154Z" fill="#074C0B"/>
<path d="M24.9579 14.7542C24.5603 14.5364 24.2135 14.2373 23.9403 13.8768C23.6672 13.5163 23.4739 13.1023 23.3731 12.6622C23.342 12.5298 23.3198 12.3974 23.302 12.265V11.9384C23.3056 11.7219 23.3294 11.5062 23.3731 11.2941C23.4757 10.8097 23.6893 10.3555 23.9972 9.9666C24.3052 9.57774 24.6993 9.26476 25.1488 9.05201L24.7049 8.32821C24.0098 8.64963 23.4224 9.16307 23.0128 9.80726C22.6031 10.4514 22.3886 11.1992 22.3947 11.9613C22.4007 12.7234 22.6272 13.4676 23.0471 14.1053C23.467 14.7429 24.0625 15.247 24.7626 15.5575L25.171 14.8557C25.1 14.816 25.0245 14.7895 24.9579 14.7542Z" fill="#022703"/>
</g>
<defs>
<clipPath id="clip0_1_30">
<rect width="69.2679" height="23.9695" fill="white" transform="translate(0.732147)"/>
</clipPath>
</defs>
</svg>
